<svg xmlns="http://www.w3.org/2000/svg" width="64" height="64" viewBox="0 0 64 64" version="1.1">
 <rect width="43" height="58" x="11" y="4" ry="1.2" style="opacity:0.2;fill-opacity:1;stroke-width:0;stop-color:#000000"/>
 <rect width="43" height="58" x="11" y="3" ry="1.2" style="fill:#64717b;fill-opacity:1;stroke-width:0;stop-color:#000000"/>
 <rect style="opacity:0.2;fill-opacity:1;stroke-width:0;stop-color:#000000" width="35" height="11" x="15" y="9" ry="0.8"/>
 <rect style="fill:#2db6ed;fill-opacity:1;stroke-width:0;stop-color:#000000" width="35" height="11" x="15" y="8" ry="0.8"/>
 <rect style="opacity:0.2;fill-opacity:1;stroke:none;stroke-width:0;stroke-miterlimit:4;stroke-dasharray:none;stop-color:#000000" width="9" height="9" x="15" y="23" ry="0.5"/>
 <rect style="fill:#cad2d9;fill-opacity:1;stroke:none;stroke-width:0;stroke-miterlimit:4;stroke-dasharray:none;stop-color:#000000" width="9" height="9" x="15" y="22" ry="0.5"/>
 <rect style="opacity:0.2;fill-opacity:1;stroke:none;stroke-width:0;stroke-miterlimit:4;stroke-dasharray:none;stop-color:#000000" width="9" height="9" x="28" y="23" ry="0.5"/>
 <rect style="fill:#cad2d9;fill-opacity:1;stroke:none;stroke-width:0;stroke-miterlimit:4;stroke-dasharray:none;stop-color:#000000" width="9" height="9" x="28" y="22" ry="0.5"/>
 <rect style="opacity:0.2;fill-opacity:1;stroke:none;stroke-width:0;stroke-miterlimit:4;stroke-dasharray:none;stop-color:#000000" width="9" height="9" x="41" y="23" ry="0.5"/>
 <rect style="fill:#cad2d9;fill-opacity:1;stroke:none;stroke-width:0;stroke-miterlimit:4;stroke-dasharray:none;stop-color:#000000" width="9" height="9" x="41" y="22" ry="0.5"/>
 <rect style="opacity:0.2;fill-opacity:1;stroke:none;stroke-width:0;stroke-miterlimit:4;stroke-dasharray:none;stop-color:#000000" width="9" height="9" x="15" y="36" ry="0.5"/>
 <rect style="fill:#cad2d9;fill-opacity:1;stroke:none;stroke-width:0;stroke-miterlimit:4;stroke-dasharray:none;stop-color:#000000" width="9" height="9" x="15" y="35" ry="0.5"/>
 <rect style="opacity:0.2;fill-opacity:1;stroke:none;stroke-width:0;stroke-miterlimit:4;stroke-dasharray:none;stop-color:#000000" width="9" height="9" x="28" y="36" ry="0.5"/>
 <rect style="fill:#cad2d9;fill-opacity:1;stroke:none;stroke-width:0;stroke-miterlimit:4;stroke-dasharray:none;stop-color:#000000" width="9" height="9" x="28" y="35" ry="0.5"/>
 <rect style="opacity:0.2;fill-opacity:1;stroke:none;stroke-width:0;stroke-miterlimit:4;stroke-dasharray:none;stop-color:#000000" width="9" height="9" x="15" y="49" ry="0.5"/>
 <rect style="fill:#cad2d9;fill-opacity:1;stroke:none;stroke-width:0;stroke-miterlimit:4;stroke-dasharray:none;stop-color:#000000" width="9" height="9" x="15" y="48" ry="0.5"/>
 <rect style="opacity:0.2;fill-opacity:1;stroke:none;stroke-width:0;stroke-miterlimit:4;stroke-dasharray:none;stop-color:#000000" width="9" height="9" x="28" y="49" ry="0.5"/>
 <rect style="fill:#cad2d9;fill-opacity:1;stroke:none;stroke-width:0;stroke-miterlimit:4;stroke-dasharray:none;stop-color:#000000" width="9" height="9" x="28" y="48" ry="0.5"/>
 <rect style="opacity:0.2;fill-opacity:1;stroke:none;stroke-width:0;stroke-miterlimit:4;stroke-dasharray:none;stop-color:#000000" width="9" height="23" x="41" y="35" ry="0.5"/>
 <rect style="fill:#134483;fill-opacity:1;stroke:none;stroke-width:0;stroke-miterlimit:4;stroke-dasharray:none;stop-color:#000000" width="9" height="22" x="41" y="35" ry="0.5"/>
 <path style="opacity:0.2;fill:#ffffff;fill-opacity:1;stroke:none;stroke-width:0;stroke-miterlimit:4;stroke-dasharray:none;stop-color:#000000" d="M 15.5,22 C 15.223,22 15,22.223 15,22.5 v 1 C 15,23.223 15.223,23 15.5,23 h 8 c 0.277,0 0.5,0.223 0.5,0.5 v -1 C 24,22.223 23.777,22 23.5,22 Z"/>
 <path style="opacity:0.2;fill:#ffffff;fill-opacity:1;stroke:none;stroke-width:0;stroke-miterlimit:4;stroke-dasharray:none;stop-color:#000000" d="M 28.5,22 C 28.223,22 28,22.223 28,22.5 v 1 C 28,23.223 28.223,23 28.5,23 h 8 c 0.277,0 0.5,0.223 0.5,0.5 v -1 c 0,-0.277 -0.223,-0.5 -0.5,-0.5 z"/>
 <path style="opacity:0.2;fill:#ffffff;fill-opacity:1;stroke:none;stroke-width:0;stroke-miterlimit:4;stroke-dasharray:none;stop-color:#000000" d="M 41.5,22 C 41.223,22 41,22.223 41,22.5 v 1 C 41,23.223 41.223,23 41.5,23 h 8 c 0.277,0 0.5,0.223 0.5,0.5 v -1 C 50,22.223 49.777,22 49.5,22 Z"/>
 <path style="opacity:0.2;fill:#ffffff;fill-opacity:1;stroke:none;stroke-width:0;stroke-miterlimit:4;stroke-dasharray:none;stop-color:#000000" d="M 15.5,35 C 15.223,35 15,35.223 15,35.5 v 1 C 15,36.223 15.223,36 15.5,36 h 8 c 0.277,0 0.5,0.223 0.5,0.5 v -1 C 24,35.223 23.777,35 23.5,35 Z"/>
 <path style="opacity:0.2;fill:#ffffff;fill-opacity:1;stroke:none;stroke-width:0;stroke-miterlimit:4;stroke-dasharray:none;stop-color:#000000" d="M 28.5,35 C 28.223,35 28,35.223 28,35.5 v 1 C 28,36.223 28.223,36 28.5,36 h 8 c 0.277,0 0.5,0.223 0.5,0.5 v -1 C 37,35.223 36.777,35 36.5,35 Z"/>
 <path style="opacity:0.2;fill:#ffffff;fill-opacity:1;stroke:none;stroke-width:0;stroke-miterlimit:4;stroke-dasharray:none;stop-color:#000000" d="M 15.5,48 C 15.223,48 15,48.223 15,48.5 v 1 C 15,49.223 15.223,49 15.5,49 h 8 c 0.277,0 0.5,0.223 0.5,0.5 v -1 C 24,48.223 23.777,48 23.5,48 Z"/>
 <path style="opacity:0.2;fill:#ffffff;fill-opacity:1;stroke:none;stroke-width:0;stroke-miterlimit:4;stroke-dasharray:none;stop-color:#000000" d="M 28.5,48 C 28.223,48 28,48.223 28,48.5 v 1 C 28,49.223 28.223,49 28.5,49 h 8 c 0.277,0 0.5,0.223 0.5,0.5 v -1 C 37,48.223 36.777,48 36.5,48 Z"/>
 <path style="opacity:0.2;fill:#ffffff;fill-opacity:1;stroke:none;stroke-width:0;stroke-miterlimit:4;stroke-dasharray:none;stop-color:#000000" d="M 41.5,35 C 41.223,35 41,35.223 41,35.5 v 1 C 41,36.223 41.223,36 41.5,36 h 8 c 0.277,0 0.5,0.223 0.5,0.5 v -1 C 50,35.223 49.777,35 49.5,35 Z"/>
 <path style="opacity:0.2;fill-opacity:1;stroke-width:0;stop-color:#000000;fill:#ffffff" d="M 15.800781,8 C 15.357581,8 15,8.357581 15,8.800781 v 1 C 15,9.357581 15.357581,9 15.800781,9 H 49.199219 C 49.642419,9 50,9.357581 50,9.800781 v -1 C 50,8.357581 49.642419,8 49.199219,8 Z"/>
 <path style="opacity:0.2;fill:#ffffff;fill-opacity:1;stroke-width:0;stop-color:#000000" d="M 12.199219,3 C 11.534419,3 11,3.5344187 11,4.1992188 v 1 C 11,4.5344187 11.534419,4 12.199219,4 H 52.800781 C 53.465581,4 54,4.5344188 54,5.1992188 v -1 C 54,3.5344187 53.465581,3 52.800781,3 Z"/>
</svg>
