<svg xmlns="http://www.w3.org/2000/svg" width="22" height="22" viewBox="0 0 22 22" version="1.1">
 <rect style="opacity:0.2;fill-opacity:1;stroke-width:0;stop-color:#000000" width="13" height="20" x="5" y="1.5" ry="0.5"/>
 <rect style="fill:#64717b;fill-opacity:1;stroke-width:0;stop-color:#000000" width="13" height="20" x="5" y="1" ry="0.5"/>
 <rect style="opacity:0.2;fill-opacity:1;stroke-width:0;stop-color:#000000" width="11" height="4" x="6" y="3.3" ry="0.3"/>
 <rect style="fill:#2db6ed;fill-opacity:1;stroke-width:0;stop-color:#000000" width="11" height="4" x="6" y="3" ry="0.3"/>
 <rect style="opacity:0.2;fill-opacity:1;stroke:none;stroke-width:0;stroke-miterlimit:4;stroke-dasharray:none;stop-color:#000000" width="3" height="3" x="6" y="8.3" ry="0.2"/>
 <rect style="fill:#cad2d9;fill-opacity:1;stroke:none;stroke-width:0;stroke-miterlimit:4;stroke-dasharray:none;stop-color:#000000" width="3" height="3" x="6" y="8" ry="0.2"/>
 <rect style="opacity:0.2;fill-opacity:1;stroke:none;stroke-width:0;stroke-miterlimit:4;stroke-dasharray:none;stop-color:#000000" width="3" height="3" x="10" y="8.3" ry="0.2"/>
 <rect style="fill:#cad2d9;fill-opacity:1;stroke:none;stroke-width:0;stroke-miterlimit:4;stroke-dasharray:none;stop-color:#000000" width="3" height="3" x="10" y="8" ry="0.2"/>
 <rect style="opacity:0.2;fill-opacity:1;stroke:none;stroke-width:0;stroke-miterlimit:4;stroke-dasharray:none;stop-color:#000000" width="3" height="3" x="14" y="8.3" ry="0.2"/>
 <rect style="fill:#cad2d9;fill-opacity:1;stroke:none;stroke-width:0;stroke-miterlimit:4;stroke-dasharray:none;stop-color:#000000" width="3" height="3" x="14" y="8" ry="0.2"/>
 <rect style="opacity:0.2;fill-opacity:1;stroke:none;stroke-width:0;stroke-miterlimit:4;stroke-dasharray:none;stop-color:#000000" width="3" height="3" x="6" y="12.3" ry="0.2"/>
 <rect style="fill:#cad2d9;fill-opacity:1;stroke:none;stroke-width:0;stroke-miterlimit:4;stroke-dasharray:none;stop-color:#000000" width="3" height="3" x="6" y="12" ry="0.2"/>
 <rect style="opacity:0.2;fill-opacity:1;stroke:none;stroke-width:0;stroke-miterlimit:4;stroke-dasharray:none;stop-color:#000000" width="3" height="3" x="10" y="12.3" ry="0.2"/>
 <rect style="fill:#cad2d9;fill-opacity:1;stroke:none;stroke-width:0;stroke-miterlimit:4;stroke-dasharray:none;stop-color:#000000" width="3" height="3" x="10" y="12" ry="0.2"/>
 <rect style="opacity:0.2;fill-opacity:1;stroke:none;stroke-width:0;stroke-miterlimit:4;stroke-dasharray:none;stop-color:#000000" width="3" height="3" x="6" y="16.3" ry="0.2"/>
 <rect style="fill:#cad2d9;fill-opacity:1;stroke:none;stroke-width:0;stroke-miterlimit:4;stroke-dasharray:none;stop-color:#000000" width="3" height="3" x="6" y="16" ry="0.2"/>
 <rect style="opacity:0.2;fill-opacity:1;stroke:none;stroke-width:0;stroke-miterlimit:4;stroke-dasharray:none;stop-color:#000000" width="3" height="3" x="10" y="16.3" ry="0.2"/>
 <rect style="fill:#cad2d9;fill-opacity:1;stroke:none;stroke-width:0;stroke-miterlimit:4;stroke-dasharray:none;stop-color:#000000" width="3" height="3" x="10" y="16" ry="0.2"/>
 <rect style="opacity:0.2;fill-opacity:1;stroke:none;stroke-width:0;stroke-miterlimit:4;stroke-dasharray:none;stop-color:#000000" width="3" height="7" x="14" y="12.3" ry="0.2"/>
 <rect style="fill:#134483;fill-opacity:1;stroke:none;stroke-width:0;stroke-miterlimit:4;stroke-dasharray:none;stop-color:#000000" width="3" height="7" x="14" y="12" ry="0.2"/>
 <path style="opacity:0.2;fill:#ffffff;fill-opacity:1;stroke-width:0;stop-color:#000000" d="M 5.5,1 C 5.223,1 5,1.223 5,1.5 V 2 C 5,1.723 5.223,1.5 5.5,1.5 h 12 C 17.777,1.5 18,1.723 18,2 V 1.5 C 18,1.223 17.777,1 17.5,1 Z"/>
 <path style="opacity:0.2;fill:#ffffff;fill-opacity:1;stroke-width:0;stop-color:#000000" d="M 6.300781,3 C 6.134581,3 6,3.1345813 6,3.3007812 V 3.5996094 C 6,3.4334094 6.134581,3.3007812 6.300781,3.3007812 H 16.699219 C 16.865419,3.3007812 17,3.4334094 17,3.5996094 V 3.3007812 C 17,3.1345813 16.865419,3 16.699219,3 Z"/>
 <path style="opacity:0.2;fill:#ffffff;fill-opacity:1;stroke:none;stroke-width:0;stroke-miterlimit:4;stroke-dasharray:none;stop-color:#000000" d="M 6.1992188,8 C 6.0884187,8 6,8.088419 6,8.199219 V 8.5 C 6,8.3892 6.088419,8.300781 6.1992188,8.300781 H 8.8007812 C 8.9115812,8.300781 9,8.3892 9,8.5 V 8.199219 C 9,8.088419 8.911581,8 8.8007812,8 Z"/>
 <path style="opacity:0.2;fill:#ffffff;fill-opacity:1;stroke:none;stroke-width:0;stroke-miterlimit:4;stroke-dasharray:none;stop-color:#000000" d="M 10.199219,8 C 10.088419,8 10,8.08842 10,8.199219 V 8.5 c 0,-0.1108 0.08842,-0.199219 0.199219,-0.199219 h 2.601562 C 12.911581,8.300781 13,8.389201 13,8.5 V 8.199219 C 13,8.088419 12.91158,8 12.800781,8 Z"/>
 <path style="opacity:0.2;fill:#ffffff;fill-opacity:1;stroke:none;stroke-width:0;stroke-miterlimit:4;stroke-dasharray:none;stop-color:#000000" d="M 14.199219,8 C 14.088419,8 14,8.08842 14,8.199219 V 8.5 c 0,-0.1108 0.08842,-0.199219 0.199219,-0.199219 h 2.601562 C 16.911581,8.300781 17,8.389201 17,8.5 V 8.199219 C 17,8.088419 16.91158,8 16.800781,8 Z"/>
 <path style="opacity:0.2;fill:#ffffff;fill-opacity:1;stroke:none;stroke-width:0;stroke-miterlimit:4;stroke-dasharray:none;stop-color:#000000" d="M 6.1992188,12 C 6.0884187,12 6,12.08842 6,12.199219 V 12.5 C 6,12.3892 6.088419,12.300781 6.1992188,12.300781 H 8.8007812 C 8.9115812,12.300781 9,12.389201 9,12.5 V 12.199219 C 9,12.088419 8.911581,12 8.8007812,12 Z"/>
 <path style="opacity:0.2;fill:#ffffff;fill-opacity:1;stroke:none;stroke-width:0;stroke-miterlimit:4;stroke-dasharray:none;stop-color:#000000" d="M 10.199219,12 C 10.088419,12 10,12.08842 10,12.199219 V 12.5 c 0,-0.1108 0.08842,-0.199219 0.199219,-0.199219 h 2.601562 C 12.911581,12.300781 13,12.389201 13,12.5 V 12.199219 C 13,12.088419 12.91158,12 12.800781,12 Z"/>
 <path style="opacity:0.2;fill:#ffffff;fill-opacity:1;stroke:none;stroke-width:0;stroke-miterlimit:4;stroke-dasharray:none;stop-color:#000000" d="M 6.1992188,16 C 6.0884187,16 6,16.08842 6,16.199219 V 16.5 C 6,16.3892 6.088419,16.300781 6.1992188,16.300781 H 8.8007812 C 8.9115812,16.300781 9,16.389201 9,16.5 V 16.199219 C 9,16.088419 8.911581,16 8.8007812,16 Z"/>
 <path style="opacity:0.2;fill:#ffffff;fill-opacity:1;stroke:none;stroke-width:0;stroke-miterlimit:4;stroke-dasharray:none;stop-color:#000000" d="M 10.199219,16 C 10.088419,16 10,16.08842 10,16.199219 V 16.5 c 0,-0.1108 0.08842,-0.199219 0.199219,-0.199219 h 2.601562 C 12.911581,16.300781 13,16.389201 13,16.5 V 16.199219 C 13,16.088419 12.91158,16 12.800781,16 Z"/>
 <path style="opacity:0.2;fill:#ffffff;fill-opacity:1;stroke:none;stroke-width:0;stroke-miterlimit:4;stroke-dasharray:none;stop-color:#000000" d="M 14.199219,12 C 14.088419,12 14,12.08842 14,12.199219 V 12.5 c 0,-0.1108 0.08842,-0.199219 0.199219,-0.199219 h 2.601562 C 16.911581,12.300781 17,12.389201 17,12.5 V 12.199219 C 17,12.088419 16.91158,12 16.800781,12 Z"/>
</svg>
