<svg xmlns="http://www.w3.org/2000/svg" width="48" height="48" viewBox="0 0 48 48" version="1.1">
 <rect style="fill-opacity:1;stroke-width:0;stop-color:#000000;opacity:0.2" width="30" height="42" x="9" y="4" ry="1" />
 <rect style="fill:#64717b;fill-opacity:1;stroke-width:0;stop-color:#000000" width="30" height="42" x="9" y="3" ry="1" />
 <rect style="opacity:0.2;fill-opacity:1;stroke-width:0;stop-color:#000000" width="24" height="8" x="12" y="7.5" ry="0.5" />
 <rect style="fill:#2db6ed;fill-opacity:1;stroke-width:0;stop-color:#000000" width="24" height="8" x="12" y="7" ry="0.5" />
 <rect style="fill-opacity:1;stroke:none;stroke-width:0;stroke-miterlimit:4;stroke-dasharray:none;stop-color:#000000;opacity:0.2" width="6" height="6" x="12" y="18.5" ry="0.5"/>
 <rect style="fill:#cad2d9;fill-opacity:1;stroke:none;stroke-width:0;stroke-miterlimit:4;stroke-dasharray:none;stop-color:#000000" width="6" height="6" x="12" y="18" ry="0.5"/>
 <rect style="fill-opacity:1;stroke:none;stroke-width:0;stroke-miterlimit:4;stroke-dasharray:none;stop-color:#000000;opacity:0.2" width="6" height="6" x="21" y="18.5" ry="0.5"/>
 <rect style="fill:#cad2d9;fill-opacity:1;stroke:none;stroke-width:0;stroke-miterlimit:4;stroke-dasharray:none;stop-color:#000000" width="6" height="6" x="21" y="18" ry="0.5"/>
 <rect style="fill-opacity:1;stroke:none;stroke-width:0;stroke-miterlimit:4;stroke-dasharray:none;stop-color:#000000;opacity:0.2" width="6" height="6" x="30" y="18.5" ry="0.5"/>
 <rect style="fill:#cad2d9;fill-opacity:1;stroke:none;stroke-width:0;stroke-miterlimit:4;stroke-dasharray:none;stop-color:#000000" width="6" height="6" x="30" y="18" ry="0.5"/>
 <rect style="fill-opacity:1;stroke:none;stroke-width:0;stroke-miterlimit:4;stroke-dasharray:none;stop-color:#000000;opacity:0.2" width="6" height="6" x="12" y="27.5" ry="0.5"/>
 <rect style="fill:#cad2d9;fill-opacity:1;stroke:none;stroke-width:0;stroke-miterlimit:4;stroke-dasharray:none;stop-color:#000000" width="6" height="6" x="12" y="27" ry="0.5"/>
 <rect style="fill-opacity:1;stroke:none;stroke-width:0;stroke-miterlimit:4;stroke-dasharray:none;stop-color:#000000;opacity:0.2" width="6" height="6" x="21" y="27.5" ry="0.5"/>
 <rect style="fill:#cad2d9;fill-opacity:1;stroke:none;stroke-width:0;stroke-miterlimit:4;stroke-dasharray:none;stop-color:#000000" width="6" height="6" x="21" y="27" ry="0.5"/>
 <rect style="fill-opacity:1;stroke:none;stroke-width:0;stroke-miterlimit:4;stroke-dasharray:none;stop-color:#000000;opacity:0.2" width="6" height="6" x="12" y="36.5" ry="0.5"/>
 <rect style="fill:#cad2d9;fill-opacity:1;stroke:none;stroke-width:0;stroke-miterlimit:4;stroke-dasharray:none;stop-color:#000000" width="6" height="6" x="12" y="36" ry="0.5"/>
 <rect style="opacity:0.2;fill-opacity:1;stroke:none;stroke-width:0;stroke-miterlimit:4;stroke-dasharray:none;stop-color:#000000" width="6" height="6" x="21" y="36.5" ry="0.5"/>
 <rect style="fill:#cad2d9;fill-opacity:1;stroke:none;stroke-width:0;stroke-miterlimit:4;stroke-dasharray:none;stop-color:#000000" width="6" height="6" x="21" y="36" ry="0.5"/>
 <rect style="opacity:0.2;fill-opacity:1;stroke:none;stroke-width:0;stroke-miterlimit:4;stroke-dasharray:none;stop-color:#000000" width="6" height="15" x="30" y="27.5" ry="0.5"/>
 <rect style="fill:#134483;fill-opacity:1;stroke:none;stroke-width:0;stroke-miterlimit:4;stroke-dasharray:none;stop-color:#000000" width="6" height="15" x="30" y="27" ry="0.5"/>
 <path style="opacity:0.2;fill:#ffffff;fill-opacity:1;stroke-width:0;stop-color:#000000" d="M 12.5,7 C 12.223,7 12,7.223 12,7.5 V 8 c 0,-0.277 0.223,-0.5 0.5,-0.5 h 23 C 35.777,7.5 36,7.723 36,8 V 7.5 C 36,7.223 35.777,7 35.5,7 Z"/>
 <path style="opacity:0.2;fill:#ffffff;fill-opacity:1;stroke-width:0;stop-color:#000000" d="M 10,3 C 9.446,3 9,3.446 9,4 V 5 C 9,4.446 9.446,4 10,4 h 28 c 0.554,0 1,0.446 1,1 V 4 C 39,3.446 38.554,3 38,3 Z"/>
 <path style="opacity:0.2;fill:#ffffff;fill-opacity:1;stroke:none;stroke-width:0;stroke-miterlimit:4;stroke-dasharray:none;stop-color:#000000" d="M 12.5,18 C 12.223,18 12,18.223 12,18.5 V 19 c 0,-0.277 0.223,-0.5 0.5,-0.5 h 5 c 0.277,0 0.5,0.223 0.5,0.5 V 18.5 C 18,18.223 17.777,18 17.5,18 Z"/>
 <path style="opacity:0.2;fill:#ffffff;fill-opacity:1;stroke:none;stroke-width:0;stroke-miterlimit:4;stroke-dasharray:none;stop-color:#000000" d="M 21.5,18 C 21.223,18 21,18.223 21,18.5 V 19 c 0,-0.277 0.223,-0.5 0.5,-0.5 h 5 c 0.277,0 0.5,0.223 0.5,0.5 V 18.5 C 27,18.223 26.777,18 26.5,18 Z"/>
 <path style="opacity:0.2;fill:#ffffff;fill-opacity:1;stroke:none;stroke-width:0;stroke-miterlimit:4;stroke-dasharray:none;stop-color:#000000" d="M 30.5,18 C 30.223,18 30,18.223 30,18.5 V 19 c 0,-0.277 0.223,-0.5 0.5,-0.5 h 5 c 0.277,0 0.5,0.223 0.5,0.5 V 18.5 C 36,18.223 35.777,18 35.5,18 Z"/>
 <path style="opacity:0.2;fill:#ffffff;fill-opacity:1;stroke:none;stroke-width:0;stroke-miterlimit:4;stroke-dasharray:none;stop-color:#000000" d="M 12.5,27 C 12.223,27 12,27.223 12,27.5 V 28 c 0,-0.277 0.223,-0.5 0.5,-0.5 h 5 c 0.277,0 0.5,0.223 0.5,0.5 V 27.5 C 18,27.223 17.777,27 17.5,27 Z"/>
 <path style="opacity:0.2;fill:#ffffff;fill-opacity:1;stroke:none;stroke-width:0;stroke-miterlimit:4;stroke-dasharray:none;stop-color:#000000" d="M 21.5,27 C 21.223,27 21,27.223 21,27.5 V 28 c 0,-0.277 0.223,-0.5 0.5,-0.5 h 5 c 0.277,0 0.5,0.223 0.5,0.5 V 27.5 C 27,27.223 26.777,27 26.5,27 Z"/>
 <path style="opacity:0.2;fill:#ffffff;fill-opacity:1;stroke:none;stroke-width:0;stroke-miterlimit:4;stroke-dasharray:none;stop-color:#000000" d="M 12.5,36 C 12.223,36 12,36.223 12,36.5 V 37 c 0,-0.277 0.223,-0.5 0.5,-0.5 h 5 c 0.277,0 0.5,0.223 0.5,0.5 V 36.5 C 18,36.223 17.777,36 17.5,36 Z"/>
 <path style="opacity:0.2;fill:#ffffff;fill-opacity:1;stroke:none;stroke-width:0;stroke-miterlimit:4;stroke-dasharray:none;stop-color:#000000" d="M 21.5,36 C 21.223,36 21,36.223 21,36.5 V 37 c 0,-0.277 0.223,-0.5 0.5,-0.5 h 5 c 0.276999,0 0.5,0.223 0.5,0.5 V 36.5 C 27,36.223 26.776999,36 26.5,36 Z"/>
 <path style="opacity:0.2;fill:#ffffff;fill-opacity:1;stroke:none;stroke-width:0;stroke-miterlimit:4;stroke-dasharray:none;stop-color:#000000" d="M 30.5,27 C 30.223,27 30,27.223 30,27.5 V 28 c 0,-0.277 0.223,-0.5 0.5,-0.5 h 5 c 0.277,0 0.5,0.223 0.5,0.5 V 27.5 C 36,27.223 35.777,27 35.5,27 Z"/>
</svg>
