<svg xmlns="http://www.w3.org/2000/svg" width="32" height="32" viewBox="0 0 32 32" version="1.1">
 <rect style="opacity:0.2;fill-opacity:1;stroke-width:0;stop-color:#000000" width="20" height="28" x="6" y="3" ry="0.5"/>
 <rect style="fill:#64717b;fill-opacity:1;stroke-width:0;stop-color:#000000" width="20" height="28" x="6" y="2" ry="0.5"/>
 <rect style="opacity:0.2;fill-opacity:1;stroke-width:0;stop-color:#000000" width="16" height="5" x="8" y="5.5" ry="0.3"/>
 <rect style="fill:#2db6ed;fill-opacity:1;stroke-width:0;stop-color:#000000" width="16" height="5" x="8" y="5" ry="0.3"/>
 <rect style="opacity:0.2;fill-opacity:1;stroke:none;stroke-width:0;stroke-miterlimit:4;stroke-dasharray:none;stop-color:#000000" width="4" height="4" x="8" y="12.5" ry="0.3"/>
 <rect style="fill:#cad2d9;fill-opacity:1;stroke:none;stroke-width:0;stroke-miterlimit:4;stroke-dasharray:none;stop-color:#000000" width="4" height="4" x="8" y="12" ry="0.3"/>
 <rect style="opacity:0.2;fill-opacity:1;stroke:none;stroke-width:0;stroke-miterlimit:4;stroke-dasharray:none;stop-color:#000000" width="4" height="4" x="14" y="12.5" ry="0.3"/>
 <rect style="fill:#cad2d9;fill-opacity:1;stroke:none;stroke-width:0;stroke-miterlimit:4;stroke-dasharray:none;stop-color:#000000" width="4" height="4" x="14" y="12" ry="0.3"/>
 <rect style="opacity:0.2;fill-opacity:1;stroke:none;stroke-width:0;stroke-miterlimit:4;stroke-dasharray:none;stop-color:#000000" width="4" height="4" x="20" y="12.5" ry="0.3"/>
 <rect style="fill:#cad2d9;fill-opacity:1;stroke:none;stroke-width:0;stroke-miterlimit:4;stroke-dasharray:none;stop-color:#000000" width="4" height="4" x="20" y="12" ry="0.3"/>
 <rect style="opacity:0.2;fill-opacity:1;stroke:none;stroke-width:0;stroke-miterlimit:4;stroke-dasharray:none;stop-color:#000000" width="4" height="4" x="8" y="18.5" ry="0.3"/>
 <rect style="fill:#cad2d9;fill-opacity:1;stroke:none;stroke-width:0;stroke-miterlimit:4;stroke-dasharray:none;stop-color:#000000" width="4" height="4" x="8" y="18" ry="0.3"/>
 <rect style="opacity:0.2;fill-opacity:1;stroke:none;stroke-width:0;stroke-miterlimit:4;stroke-dasharray:none;stop-color:#000000" width="4" height="4" x="14" y="18.5" ry="0.3"/>
 <rect style="fill:#cad2d9;fill-opacity:1;stroke:none;stroke-width:0;stroke-miterlimit:4;stroke-dasharray:none;stop-color:#000000" width="4" height="4" x="14" y="18" ry="0.3"/>
 <rect style="opacity:0.2;fill-opacity:1;stroke:none;stroke-width:0;stroke-miterlimit:4;stroke-dasharray:none;stop-color:#000000" width="4" height="4" x="8" y="24.5" ry="0.3"/>
 <rect style="fill:#cad2d9;fill-opacity:1;stroke:none;stroke-width:0;stroke-miterlimit:4;stroke-dasharray:none;stop-color:#000000" width="4" height="4" x="8" y="24" ry="0.3"/>
 <rect style="opacity:0.2;fill-opacity:1;stroke:none;stroke-width:0;stroke-miterlimit:4;stroke-dasharray:none;stop-color:#000000" width="4" height="4" x="14" y="24.5" ry="0.3"/>
 <rect style="fill:#cad2d9;fill-opacity:1;stroke:none;stroke-width:0;stroke-miterlimit:4;stroke-dasharray:none;stop-color:#000000" width="4" height="4" x="14" y="24" ry="0.3"/>
 <rect style="opacity:0.2;fill-opacity:1;stroke:none;stroke-width:0;stroke-miterlimit:4;stroke-dasharray:none;stop-color:#000000" width="4" height="10" x="20" y="18.5" ry="0.3"/>
 <rect style="fill:#134483;fill-opacity:1;stroke:none;stroke-width:0;stroke-miterlimit:4;stroke-dasharray:none;stop-color:#000000" width="4" height="10" x="20" y="18" ry="0.3"/>
 <path style="opacity:0.2;fill:#ffffff;fill-opacity:1;stroke-width:0;stop-color:#000000" d="M 6.5,2 C 6.223,2 6,2.223 6,2.5 v 1 C 6,3.223 6.223,3 6.5,3 h 19 C 25.777,3 26,3.223 26,3.5 v -1 C 26,2.223 25.777,2 25.5,2 Z"/>
 <path style="opacity:0.2;fill:#ffffff;fill-opacity:1;stroke-width:0;stop-color:#000000" d="M 8.300781,5 C 8.134581,5 8,5.1345813 8,5.3007812 v 0.5 C 8,5.6345813 8.134581,5.5 8.300781,5.5 H 23.699219 C 23.865419,5.5 24,5.6345813 24,5.8007812 v -0.5 C 24,5.1345813 23.865419,5 23.699219,5 Z"/>
 <path style="opacity:0.2;fill:#ffffff;fill-opacity:1;stroke:none;stroke-width:0;stroke-miterlimit:4;stroke-dasharray:none;stop-color:#000000" d="M 8.3007812,12 C 8.1345813,12 8,12.134581 8,12.300781 v 0.5 C 8,12.634581 8.1345813,12.5 8.3007812,12.5 H 11.699219 C 11.865419,12.5 12,12.634581 12,12.800781 v -0.5 C 12,12.134581 11.865419,12 11.699219,12 Z"/>
 <path style="opacity:0.2;fill:#ffffff;fill-opacity:1;stroke:none;stroke-width:0;stroke-miterlimit:4;stroke-dasharray:none;stop-color:#000000" d="M 14.300781,12 C 14.134581,12 14,12.134581 14,12.300781 v 0.5 C 14,12.634581 14.134581,12.5 14.300781,12.5 h 3.398438 C 17.865419,12.5 18,12.634581 18,12.800781 v -0.5 C 18,12.134581 17.865419,12 17.699219,12 Z"/>
 <path style="opacity:0.2;fill:#ffffff;fill-opacity:1;stroke:none;stroke-width:0;stroke-miterlimit:4;stroke-dasharray:none;stop-color:#000000" d="M 20.300781,12 C 20.134581,12 20,12.134581 20,12.300781 v 0.5 C 20,12.634581 20.134581,12.5 20.300781,12.5 h 3.398438 C 23.865419,12.5 24,12.634581 24,12.800781 v -0.5 C 24,12.134581 23.865419,12 23.699219,12 Z"/>
 <path style="opacity:0.2;fill:#ffffff;fill-opacity:1;stroke:none;stroke-width:0;stroke-miterlimit:4;stroke-dasharray:none;stop-color:#000000" d="M 8.3007812,18 C 8.1345813,18 8,18.134581 8,18.300781 v 0.5 C 8,18.634581 8.1345813,18.5 8.3007812,18.5 H 11.699219 C 11.865419,18.5 12,18.634581 12,18.800781 v -0.5 C 12,18.134581 11.865419,18 11.699219,18 Z"/>
 <path style="opacity:0.2;fill:#ffffff;fill-opacity:1;stroke:none;stroke-width:0;stroke-miterlimit:4;stroke-dasharray:none;stop-color:#000000" d="M 14.300781,18 C 14.134581,18 14,18.134581 14,18.300781 v 0.5 C 14,18.634581 14.134581,18.5 14.300781,18.5 h 3.398438 C 17.865419,18.5 18,18.634581 18,18.800781 v -0.5 C 18,18.134581 17.865419,18 17.699219,18 Z"/>
 <path style="opacity:0.2;fill:#ffffff;fill-opacity:1;stroke:none;stroke-width:0;stroke-miterlimit:4;stroke-dasharray:none;stop-color:#000000" d="M 8.3007812,24 C 8.1345813,24 8,24.134581 8,24.300781 v 0.5 C 8,24.634581 8.1345813,24.5 8.3007812,24.5 H 11.699219 C 11.865419,24.5 12,24.634581 12,24.800781 v -0.5 C 12,24.134581 11.865419,24 11.699219,24 Z"/>
 <path style="opacity:0.2;fill:#ffffff;fill-opacity:1;stroke:none;stroke-width:0;stroke-miterlimit:4;stroke-dasharray:none;stop-color:#000000" d="M 14.300781,24 C 14.134581,24 14,24.134581 14,24.300781 v 0.5 C 14,24.634581 14.134581,24.5 14.300781,24.5 h 3.398438 C 17.865419,24.5 18,24.634581 18,24.800781 v -0.5 C 18,24.134581 17.865419,24 17.699219,24 Z"/>
 <path style="opacity:0.2;fill:#ffffff;fill-opacity:1;stroke:none;stroke-width:0;stroke-miterlimit:4;stroke-dasharray:none;stop-color:#000000" d="M 20.300781,18 C 20.134581,18 20,18.134581 20,18.300781 v 0.5 C 20,18.634581 20.134581,18.5 20.300781,18.5 h 3.398438 C 23.865419,18.5 24,18.634581 24,18.800781 v -0.5 C 24,18.134581 23.865419,18 23.699219,18 Z"/>
</svg>
