<svg xmlns="http://www.w3.org/2000/svg" width="24" height="24" viewBox="0 0 24 24" version="1.1">
 <rect style="opacity:0.2;fill-opacity:1;stroke-width:0;stop-color:#000000" width="13" height="20" x="5" y="2.5" ry="0.5"/>
 <rect style="fill:#64717b;fill-opacity:1;stroke-width:0;stop-color:#000000" width="13" height="20" x="5" y="2" ry="0.5"/>
 <rect style="opacity:0.2;fill-opacity:1;stroke-width:0;stop-color:#000000" width="11" height="4" x="6" y="4.3" ry="0.3"/>
 <rect style="fill:#2db6ed;fill-opacity:1;stroke-width:0;stop-color:#000000" width="11" height="4" x="6" y="4" ry="0.3"/>
 <rect style="opacity:0.2;fill-opacity:1;stroke:none;stroke-width:0;stroke-miterlimit:4;stroke-dasharray:none;stop-color:#000000" width="3" height="3" x="6" y="9.3" ry="0.2"/>
 <rect style="fill:#cad2d9;fill-opacity:1;stroke:none;stroke-width:0;stroke-miterlimit:4;stroke-dasharray:none;stop-color:#000000" width="3" height="3" x="6" y="9" ry="0.2"/>
 <rect style="opacity:0.2;fill-opacity:1;stroke:none;stroke-width:0;stroke-miterlimit:4;stroke-dasharray:none;stop-color:#000000" width="3" height="3" x="10" y="9.3" ry="0.2"/>
 <rect style="fill:#cad2d9;fill-opacity:1;stroke:none;stroke-width:0;stroke-miterlimit:4;stroke-dasharray:none;stop-color:#000000" width="3" height="3" x="10" y="9" ry="0.2"/>
 <rect style="opacity:0.2;fill-opacity:1;stroke:none;stroke-width:0;stroke-miterlimit:4;stroke-dasharray:none;stop-color:#000000" width="3" height="3" x="14" y="9.3" ry="0.2"/>
 <rect style="fill:#cad2d9;fill-opacity:1;stroke:none;stroke-width:0;stroke-miterlimit:4;stroke-dasharray:none;stop-color:#000000" width="3" height="3" x="14" y="9" ry="0.2"/>
 <rect style="opacity:0.2;fill-opacity:1;stroke:none;stroke-width:0;stroke-miterlimit:4;stroke-dasharray:none;stop-color:#000000" width="3" height="3" x="6" y="13.3" ry="0.2"/>
 <rect style="fill:#cad2d9;fill-opacity:1;stroke:none;stroke-width:0;stroke-miterlimit:4;stroke-dasharray:none;stop-color:#000000" width="3" height="3" x="6" y="13" ry="0.2"/>
 <rect style="opacity:0.2;fill-opacity:1;stroke:none;stroke-width:0;stroke-miterlimit:4;stroke-dasharray:none;stop-color:#000000" width="3" height="3" x="10" y="13.3" ry="0.2"/>
 <rect style="fill:#cad2d9;fill-opacity:1;stroke:none;stroke-width:0;stroke-miterlimit:4;stroke-dasharray:none;stop-color:#000000" width="3" height="3" x="10" y="13" ry="0.2"/>
 <rect style="opacity:0.2;fill-opacity:1;stroke:none;stroke-width:0;stroke-miterlimit:4;stroke-dasharray:none;stop-color:#000000" width="3" height="3" x="6" y="17.3" ry="0.2"/>
 <rect style="fill:#cad2d9;fill-opacity:1;stroke:none;stroke-width:0;stroke-miterlimit:4;stroke-dasharray:none;stop-color:#000000" width="3" height="3" x="6" y="17" ry="0.2"/>
 <rect style="opacity:0.2;fill-opacity:1;stroke:none;stroke-width:0;stroke-miterlimit:4;stroke-dasharray:none;stop-color:#000000" width="3" height="3" x="10" y="17.3" ry="0.2"/>
 <rect style="fill:#cad2d9;fill-opacity:1;stroke:none;stroke-width:0;stroke-miterlimit:4;stroke-dasharray:none;stop-color:#000000" width="3" height="3" x="10" y="17" ry="0.2"/>
 <rect style="opacity:0.2;fill-opacity:1;stroke:none;stroke-width:0;stroke-miterlimit:4;stroke-dasharray:none;stop-color:#000000" width="3" height="7" x="14" y="13.3" ry="0.2"/>
 <rect style="fill:#134483;fill-opacity:1;stroke:none;stroke-width:0;stroke-miterlimit:4;stroke-dasharray:none;stop-color:#000000" width="3" height="7" x="14" y="13" ry="0.2"/>
 <path style="opacity:0.2;fill:#ffffff;fill-opacity:1;stroke-width:0;stop-color:#000000" d="M 5.5,2 C 5.223,2 5,2.223 5,2.5 V 3 C 5,2.723 5.223,2.5 5.5,2.5 h 12 C 17.777,2.5 18,2.723 18,3 V 2.5 C 18,2.223 17.777,2 17.5,2 Z"/>
 <path style="opacity:0.2;fill:#ffffff;fill-opacity:1;stroke-width:0;stop-color:#000000" d="M 6.300781,4 C 6.134581,4 6,4.1345813 6,4.3007812 V 4.5996094 C 6,4.4334094 6.134581,4.3007812 6.300781,4.3007812 H 16.699219 C 16.865419,4.3007812 17,4.4334094 17,4.5996094 V 4.3007812 C 17,4.1345813 16.865419,4 16.699219,4 Z"/>
 <path style="opacity:0.2;fill:#fcfeff;fill-opacity:1;stroke:none;stroke-width:0;stroke-miterlimit:4;stroke-dasharray:none;stop-color:#000000" d="M 6.1992188,9 C 6.0884187,9 6,9.088419 6,9.199219 V 9.5 C 6,9.3892 6.088419,9.300781 6.1992188,9.300781 H 8.8007812 C 8.9115812,9.300781 9,9.3892 9,9.5 V 9.199219 C 9,9.088419 8.911581,9 8.8007812,9 Z"/>
 <path style="opacity:0.2;fill:#fcfeff;fill-opacity:1;stroke:none;stroke-width:0;stroke-miterlimit:4;stroke-dasharray:none;stop-color:#000000" d="M 10.199219,9 C 10.088419,9 10,9.08842 10,9.199219 V 9.5 c 0,-0.1108 0.08842,-0.199219 0.199219,-0.199219 h 2.601562 C 12.911581,9.300781 13,9.389201 13,9.5 V 9.199219 C 13,9.088419 12.91158,9 12.800781,9 Z"/>
 <path style="opacity:0.2;fill:#fcfeff;fill-opacity:1;stroke:none;stroke-width:0;stroke-miterlimit:4;stroke-dasharray:none;stop-color:#000000" d="M 14.199219,9 C 14.088419,9 14,9.08842 14,9.199219 V 9.5 c 0,-0.1108 0.08842,-0.199219 0.199219,-0.199219 h 2.601562 C 16.911581,9.300781 17,9.389201 17,9.5 V 9.199219 C 17,9.088419 16.91158,9 16.800781,9 Z"/>
 <path style="opacity:0.2;fill:#fcfeff;fill-opacity:1;stroke:none;stroke-width:0;stroke-miterlimit:4;stroke-dasharray:none;stop-color:#000000" d="M 6.1992188,13 C 6.0884187,13 6,13.08842 6,13.199219 V 13.5 C 6,13.3892 6.088419,13.300781 6.1992188,13.300781 H 8.8007812 C 8.9115812,13.300781 9,13.389201 9,13.5 V 13.199219 C 9,13.088419 8.911581,13 8.8007812,13 Z"/>
 <path style="opacity:0.2;fill:#fcfeff;fill-opacity:1;stroke:none;stroke-width:0;stroke-miterlimit:4;stroke-dasharray:none;stop-color:#000000" d="M 10.199219,13 C 10.088419,13 10,13.08842 10,13.199219 V 13.5 c 0,-0.1108 0.08842,-0.199219 0.199219,-0.199219 h 2.601562 C 12.911581,13.300781 13,13.389201 13,13.5 V 13.199219 C 13,13.088419 12.91158,13 12.800781,13 Z"/>
 <path style="opacity:0.2;fill:#fcfeff;fill-opacity:1;stroke:none;stroke-width:0;stroke-miterlimit:4;stroke-dasharray:none;stop-color:#000000" d="M 6.1992188,17 C 6.0884187,17 6,17.08842 6,17.199219 V 17.5 C 6,17.3892 6.088419,17.300781 6.1992188,17.300781 H 8.8007812 C 8.9115812,17.300781 9,17.389201 9,17.5 V 17.199219 C 9,17.088419 8.911581,17 8.8007812,17 Z"/>
 <path style="opacity:0.2;fill:#fcfeff;fill-opacity:1;stroke:none;stroke-width:0;stroke-miterlimit:4;stroke-dasharray:none;stop-color:#000000" d="M 10.199219,17 C 10.088419,17 10,17.08842 10,17.199219 V 17.5 c 0,-0.1108 0.08842,-0.199219 0.199219,-0.199219 h 2.601562 C 12.911581,17.300781 13,17.389201 13,17.5 V 17.199219 C 13,17.088419 12.91158,17 12.800781,17 Z"/>
 <path style="opacity:0.2;fill:#fcfeff;fill-opacity:1;stroke:none;stroke-width:0;stroke-miterlimit:4;stroke-dasharray:none;stop-color:#000000" d="M 14.199219,13 C 14.088419,13 14,13.08842 14,13.199219 V 13.5 c 0,-0.1108 0.08842,-0.199219 0.199219,-0.199219 h 2.601562 C 16.911581,13.300781 17,13.389201 17,13.5 V 13.199219 C 17,13.088419 16.91158,13 16.800781,13 Z"/>
</svg>
